<?xml version="1.0" encoding="UTF-8" standalone="no"?>
<svg
   xmlns:dc="http://purl.org/dc/elements/1.1/"
   xmlns:cc="http://creativecommons.org/ns#"
   xmlns:rdf="http://www.w3.org/1999/02/22-rdf-syntax-ns#"
   xmlns:svg="http://www.w3.org/2000/svg"
   xmlns="http://www.w3.org/2000/svg"
   xmlns:sodipodi="http://sodipodi.sourceforge.net/DTD/sodipodi-0.dtd"
   xmlns:inkscape="http://www.inkscape.org/namespaces/inkscape"
   width="190mm"
   height="59mm"
   viewBox="0 0 190 58.999994"
   version="1.1"
   id="svg302"
   inkscape:version="1.0.1 (3bc2e813f5, 2020-09-07)"
   sodipodi:docname="logo.svg">
  <defs
     id="defs296" />
  <sodipodi:namedview
     id="base"
     pagecolor="#ffffff"
     bordercolor="#666666"
     borderopacity="1.0"
     inkscape:pageopacity="0.0"
     inkscape:pageshadow="2"
     inkscape:zoom="0.98994949"
     inkscape:cx="343.82149"
     inkscape:cy="178.31201"
     inkscape:document-units="mm"
     inkscape:current-layer="layer1"
     inkscape:document-rotation="0"
     showgrid="false"
     units="mm"
     inkscape:window-width="1366"
     inkscape:window-height="705"
     inkscape:window-x="-8"
     inkscape:window-y="-8"
     inkscape:window-maximized="1" />
  <metadata
     id="metadata299">
    <rdf:RDF>
      <cc:Work
         rdf:about="">
        <dc:format>image/svg+xml</dc:format>
        <dc:type
           rdf:resource="http://purl.org/dc/dcmitype/StillImage" />
        <dc:title />
      </cc:Work>
    </rdf:RDF>
  </metadata>
  <g
     inkscape:label="Layer 1"
     inkscape:groupmode="layer"
     id="layer1">
    <path
       id="rect1025-3"
       style="fill:#ffffff;stroke:#000000;stroke-width:1.802;stroke-linejoin:miter;stroke-miterlimit:4;stroke-dasharray:none;paint-order:stroke fill markers"
       d="m 9.0827843,12.598165 v 35.136963 c 0.915388,4.577329 18.2373797,1.831879 21.1840127,7.72998 2.946633,-5.898101 20.268638,-3.152651 21.184038,-7.72998 V 12.598165 Z"
       sodipodi:nodetypes="cccccc" />
    <path
       id="rect1080"
       style="fill:#ff0000;stroke:none;stroke-width:0.43096;stroke-linejoin:round;stroke-miterlimit:4;stroke-dasharray:none;paint-order:stroke fill markers"
       d="m 9.0826465,12.65008 v 35.188352 c 0.5722913,2.865854 7.5570595,2.86554 13.4327865,3.905918 V 12.65008 Z" />
    <path
       id="rect1082"
       style="fill:#0000aa;fill-opacity:1;stroke:none;stroke-width:0.430401;stroke-linejoin:round;stroke-miterlimit:4;stroke-dasharray:none;paint-order:stroke fill markers"
       d="m 37.470425,12.65008 v 39.197686 c 5.980759,-1.14447 13.390367,-1.053481 13.980636,-4.009334 V 12.65008 Z" />
    <path
       id="path1076"
       style="fill:#ffffff;stroke:#000000;stroke-width:1.802;stroke-linejoin:miter;stroke-miterlimit:4;stroke-dasharray:none;paint-order:stroke fill markers"
       d="M 3.4300385,3.2161802 9.0000387,12.588331 H 51.47698 l 5.569199,-9.3721508 z"
       sodipodi:nodetypes="ccccc" />
    <path
       id="rect1025"
       style="fill:none;stroke:#000000;stroke-width:0.427777;stroke-linejoin:miter;stroke-miterlimit:4;stroke-dasharray:none;paint-order:stroke fill markers"
       d="M 6.0006392,4.7043732 9.8615325,11.16983 H 50.615249 l 3.860329,-6.4654568 z"
       sodipodi:nodetypes="ccccc" />
    <g
       aria-label="FEFUSPA"
       transform="scale(1.1600202,0.86205395)"
       id="text1019-6"
       style="font-style:normal;font-weight:normal;font-size:6.94184px;line-height:1.25;font-family:sans-serif;fill:#ff0000;fill-opacity:1;stroke:none;stroke-width:0.416008;stroke-miterlimit:4;stroke-dasharray:none">
      <path
         d="m 12.676329,7.6937563 h -2.321856 v 0.938911 H 12.50685 V 9.6088635 H 10.354473 V 11.76463 H 9.0596573 V 6.71756 h 3.6166717 z"
         style="font-style:normal;font-variant:normal;font-weight:bold;font-stretch:normal;font-family:sans-serif;-inkscape-font-specification:'sans-serif Bold';fill:#ff0000;stroke:none;stroke-width:0.416008;stroke-miterlimit:4;stroke-dasharray:none"
         id="path1239" />
      <path
         d="M 17.225132,11.76463 H 13.574565 V 6.71756 h 3.650567 v 0.9761963 h -2.355751 v 0.8711196 h 2.186273 v 0.9761962 h -2.186273 v 1.2473619 h 2.355751 z"
         style="font-style:normal;font-variant:normal;font-weight:bold;font-stretch:normal;font-family:sans-serif;-inkscape-font-specification:'sans-serif Bold';fill:#ff0000;stroke:none;stroke-width:0.416008;stroke-miterlimit:4;stroke-dasharray:none"
         id="path1241" />
      <path
         d="M 21.933246,7.6937563 H 19.61139 v 0.938911 h 2.152377 V 9.6088635 H 19.61139 V 11.76463 H 18.316574 V 6.71756 h 3.616672 z"
         style="font-style:normal;font-variant:normal;font-weight:bold;font-stretch:normal;font-family:sans-serif;-inkscape-font-specification:'sans-serif Bold';fill:#ff0000;stroke:none;stroke-width:0.416008;stroke-miterlimit:4;stroke-dasharray:none"
         id="path1243" />
      <path
         d="m 27.251482,9.9376519 q 0,0.9355211 -0.569448,1.4337881 -0.569448,0.498267 -1.677837,0.498267 -1.10839,0 -1.677838,-0.498267 -0.566058,-0.498267 -0.566058,-1.4303986 V 6.71756 h 1.308374 v 3.1489109 q 0,0.5253831 0.220322,0.7829911 0.220322,0.257607 0.7152,0.257607 0.488098,0 0.71181,-0.247439 0.227101,-0.247438 0.227101,-0.7931591 V 6.71756 h 1.308374 z"
         style="font-style:normal;font-variant:normal;font-weight:bold;font-stretch:normal;font-family:sans-serif;-inkscape-font-specification:'sans-serif Bold';fill:#ff0000;stroke:none;stroke-width:0.416008;stroke-miterlimit:4;stroke-dasharray:none"
         id="path1245" />
      <path
         d="m 32.508705,10.178311 q 0,0.745706 -0.633849,1.213467 -0.630461,0.464371 -1.715123,0.464371 -0.627071,0 -1.094831,-0.108467 -0.464371,-0.111855 -0.87112,-0.281334 v -1.210077 h 0.142362 q 0.403359,0.32201 0.901626,0.494878 0.501656,0.172868 0.962638,0.172868 0.118635,0 0.31184,-0.02034 0.193206,-0.02034 0.31523,-0.06779 0.149141,-0.06101 0.244049,-0.152531 0.0983,-0.09152 0.0983,-0.271165 0,-0.166089 -0.142362,-0.284724 Q 30.888491,10.005443 30.617325,9.9410414 30.332601,9.87325 30.013981,9.8156273 29.698751,9.7546151 29.420807,9.6630967 28.783567,9.4563329 28.502233,9.1038176 28.224288,8.7479127 28.224288,8.2225293 q 0,-0.7050307 0.63046,-1.1490644 0.63385,-0.4474233 1.626994,-0.4474233 0.498267,0 0.982975,0.098298 0.488099,0.094908 0.844004,0.2406595 V 8.1276213 H 32.169748 Q 31.864687,7.8835722 31.420653,7.7208728 30.980009,7.5547839 30.519027,7.5547839 q -0.162699,0 -0.325398,0.023727 -0.15931,0.020337 -0.308451,0.08135 -0.132194,0.050844 -0.227102,0.1559202 -0.09491,0.1016871 -0.09491,0.2338804 0,0.1999846 0.152531,0.3084509 0.152531,0.1050767 0.576227,0.1932055 0.277945,0.057623 0.532163,0.1118558 0.257607,0.054233 0.5525,0.1491411 0.579616,0.1898159 0.854171,0.5186043 0.277945,0.3253987 0.277945,0.8473922 z"
         style="font-style:normal;font-variant:normal;font-weight:bold;font-stretch:normal;font-family:sans-serif;-inkscape-font-specification:'sans-serif Bold';fill:#ff0000;stroke:none;stroke-width:0.416008;stroke-miterlimit:4;stroke-dasharray:none"
         id="path1247" />
      <path
         d="m 37.565945,8.3106581 q 0,0.338957 -0.118635,0.6643558 -0.118635,0.3220092 -0.338957,0.5423312 -0.301672,0.2982822 -0.674525,0.4508129 -0.369463,0.152531 -0.921963,0.152531 H 34.701758 V 11.76463 H 33.400163 V 6.71756 h 2.142208 q 0.481319,0 0.810108,0.084739 0.332178,0.08135 0.586395,0.2474386 0.305062,0.1999846 0.464372,0.5118251 0.162699,0.3118405 0.162699,0.7490951 z m -1.34566,0.030506 q 0,-0.2135429 -0.115245,-0.3660736 Q 35.989795,7.8191704 35.837264,7.7581581 35.63389,7.6768084 35.440684,7.6700293 35.247479,7.6598606 34.92547,7.6598606 H 34.701758 V 9.171609 h 0.372853 q 0.332178,0 0.545721,-0.040675 0.216932,-0.040675 0.362684,-0.1626994 0.125414,-0.1084662 0.179647,-0.2576073 0.05762,-0.1525307 0.05762,-0.3694632 z"
         style="font-style:normal;font-variant:normal;font-weight:bold;font-stretch:normal;font-family:sans-serif;-inkscape-font-specification:'sans-serif Bold';fill:#ff0000;stroke:none;stroke-width:0.416008;stroke-miterlimit:4;stroke-dasharray:none"
         id="path1249" />
      <path
         d="m 43.151957,11.76463 h -1.345659 l -0.349126,-1.02026 h -1.871043 l -0.349125,1.02026 H 37.92524 l 1.864264,-5.04707 h 1.49819 z M 41.141942,9.8190169 40.521651,8.0089863 39.901359,9.8190169 Z"
         style="font-style:normal;font-variant:normal;font-weight:bold;font-stretch:normal;font-family:sans-serif;-inkscape-font-specification:'sans-serif Bold';fill:#ff0000;stroke:none;stroke-width:0.416008;stroke-miterlimit:4;stroke-dasharray:none"
         id="path1251" />
    </g>
    <path
       sodipodi:type="star"
       style="fill:#0000aa;fill-opacity:1;stroke:#000000;stroke-width:0.554757;stroke-linejoin:miter;stroke-miterlimit:4;stroke-dasharray:none;paint-order:stroke fill markers"
       id="path1078"
       sodipodi:sides="5"
       sodipodi:cx="95.67923"
       sodipodi:cy="66.497971"
       sodipodi:r1="3.8297646"
       sodipodi:r2="1.4553107"
       sodipodi:arg1="2.1955776"
       sodipodi:arg2="2.8238962"
       inkscape:flatsided="false"
       inkscape:rounded="0"
       inkscape:randomized="0"
       inkscape:transform-center-x="0.0037637365"
       inkscape:transform-center-y="-0.31658261"
       transform="matrix(1.5080678,0,0,1.468114,-114.04487,-75.125735)"
       d="m 93.439124,69.604258 0.857622,-2.651679 -2.264002,-1.62518 2.786916,-0.0038 0.846023,-2.655403 0.864787,2.649351 2.786873,-0.01595 -2.252448,1.641156 0.876359,2.645545 -2.256877,-1.635061 z" />
    <g
       id="g1120"
       transform="matrix(1.6774675,0,0,1.6774675,-130.49846,-89.196871)">
      <g
         aria-label="05"
         transform="scale(0.95450531,1.0476631)"
         id="text1098"
         style="font-style:normal;font-variant:normal;font-weight:normal;font-stretch:normal;font-size:4.09364px;line-height:1.25;font-family:FreeSans;-inkscape-font-specification:FreeSans;fill:#00ccff;fill-opacity:1;stroke:none;stroke-width:0.102341">
        <path
           d="m 100.32586,69.423668 q 0,0.798188 -0.2508,1.172401 -0.248816,0.372222 -0.774306,0.372222 -0.533452,0 -0.780273,-0.378194 -0.244831,-0.378193 -0.244831,-1.162448 0,-0.790226 0.248812,-1.166429 0.248811,-0.378193 0.776292,-0.378193 0.533452,0 0.778286,0.384165 0.24682,0.382174 0.24682,1.156476 z m -0.523502,0.903684 q 0.06967,-0.16123 0.09355,-0.378194 0.02588,-0.218954 0.02588,-0.52549 0,-0.302555 -0.02588,-0.52549 -0.02389,-0.222935 -0.09554,-0.378194 -0.06967,-0.153268 -0.191087,-0.230897 -0.11943,-0.07763 -0.308527,-0.07763 -0.187106,0 -0.310517,0.07763 -0.12142,0.07763 -0.193078,0.234878 -0.06768,0.147297 -0.09355,0.384166 -0.02389,0.236868 -0.02389,0.519518 0,0.310517 0.0219,0.519519 0.0219,0.209002 0.09355,0.374213 0.06569,0.155258 0.185116,0.236868 0.12142,0.08161 0.320469,0.08161 0.187106,0 0.310517,-0.07763 0.123411,-0.07763 0.191087,-0.234878 z"
           style="font-style:normal;font-variant:normal;font-weight:normal;font-stretch:normal;font-size:4.07653px;font-family:FreeSans;-inkscape-font-specification:FreeSans;fill:#00ccff;stroke-width:0.102341"
           id="path1254" />
        <path
           d="m 102.89758,69.965082 q 0,0.207012 -0.0756,0.396109 -0.0756,0.189096 -0.20701,0.318478 -0.14332,0.139335 -0.34237,0.214974 -0.19706,0.07365 -0.45781,0.07365 -0.24284,0 -0.46777,-0.05175 -0.22492,-0.04976 -0.38018,-0.12142 v -0.419994 h 0.0279 q 0.16322,0.103506 0.38218,0.177154 0.21895,0.07166 0.42995,0.07166 0.14132,0 0.27269,-0.03981 0.13337,-0.03981 0.23687,-0.139335 0.0876,-0.08559 0.13137,-0.205021 0.0458,-0.119429 0.0458,-0.276678 0,-0.153268 -0.0537,-0.258764 -0.0518,-0.105496 -0.1453,-0.169192 -0.10351,-0.07564 -0.2528,-0.105496 -0.14729,-0.03185 -0.33042,-0.03185 -0.17516,0 -0.33838,0.02389 -0.16123,0.02389 -0.27867,0.04777 v -1.526709 h 1.78348 v 0.348337 h -1.39932 v 0.788235 q 0.0856,-0.008 0.17517,-0.01194 0.0896,-0.004 0.15526,-0.004 0.24085,0 0.42198,0.0418 0.18113,0.03981 0.33241,0.143316 0.15924,0.109477 0.24682,0.28265 0.0876,0.173173 0.0876,0.433927 z"
           style="font-style:normal;font-variant:normal;font-weight:normal;font-stretch:normal;font-size:4.07653px;font-family:FreeSans;-inkscape-font-specification:FreeSans;fill:#00ccff;stroke-width:0.102341"
           id="path1256" />
      </g>
      <g
         aria-label="04"
         transform="scale(0.93658224,1.0677119)"
         id="text1102"
         style="font-style:normal;font-variant:normal;font-weight:normal;font-stretch:normal;font-size:4.11704px;line-height:1.25;font-family:FreeSans;-inkscape-font-specification:FreeSans;fill:#00ccff;fill-opacity:1;stroke:none;stroke-width:0.280706">
        <path
           d="m 102.23085,72.304455 q 0,0.80612 -0.2533,1.184051 -0.25128,0.375921 -0.78199,0.375921 -0.53876,0 -0.78803,-0.381952 -0.24727,-0.381952 -0.24727,-1.173999 0,-0.798079 0.25129,-1.178021 0.25128,-0.381952 0.78401,-0.381952 0.53875,0 0.78601,0.387983 0.24928,0.385973 0.24928,1.167969 z m -0.52871,0.912664 q 0.0704,-0.162832 0.0945,-0.381952 0.0261,-0.22113 0.0261,-0.530712 0,-0.305562 -0.0261,-0.530712 -0.0241,-0.225151 -0.0965,-0.381952 -0.0704,-0.154791 -0.19298,-0.233192 -0.12062,-0.0784 -0.31159,-0.0784 -0.18897,0 -0.31361,0.0784 -0.12262,0.0784 -0.19499,0.237212 -0.0683,0.148761 -0.0945,0.387983 -0.0241,0.239223 -0.0241,0.524682 0,0.313602 0.0221,0.524681 0.0221,0.211079 0.0945,0.377931 0.0663,0.156802 0.18695,0.239223 0.12263,0.08242 0.32366,0.08242 0.18896,0 0.3136,-0.0784 0.12464,-0.0784 0.19298,-0.237212 z"
           style="font-style:normal;font-variant:normal;font-weight:normal;font-stretch:normal;font-size:4.11704px;font-family:FreeSans;-inkscape-font-specification:FreeSans;fill:#00ccff;stroke-width:0.280706"
           id="path1259" />
        <path
           d="m 104.92059,72.959804 h -0.44427 v 0.842305 h -0.38597 v -0.842305 h -1.43333 v -0.462363 l 1.44941,-1.688629 h 0.36989 v 1.829348 h 0.44427 z m -0.83024,-0.321644 v -1.350903 l -1.15993,1.350903 z"
           style="font-style:normal;font-variant:normal;font-weight:normal;font-stretch:normal;font-size:4.11704px;font-family:FreeSans;-inkscape-font-specification:FreeSans;fill:#00ccff;stroke-width:0.280706"
           id="path1261" />
      </g>
      <g
         aria-label="88"
         transform="scale(0.9563574,1.0456342)"
         id="text1106"
         style="font-style:normal;font-variant:normal;font-weight:normal;font-stretch:normal;font-size:4.06px;line-height:1.25;font-family:FreeSans;-inkscape-font-specification:FreeSans;fill:#00ccff;fill-opacity:1;stroke:none;stroke-width:0.276817">
        <path
           d="m 100.1694,78.763499 q 0,0.382608 -0.299349,0.636358 -0.297363,0.25375 -0.749355,0.25375 -0.479746,0 -0.765215,-0.247803 -0.283486,-0.247803 -0.283486,-0.634375 0,-0.24582 0.142734,-0.444062 0.142734,-0.200225 0.402432,-0.317188 v -0.01189 Q 98.37927,77.87141 98.26429,77.720746 q -0.112999,-0.150664 -0.112999,-0.376661 0,-0.333046 0.273575,-0.555078 0.273574,-0.222031 0.69583,-0.222031 0.44208,0 0.705742,0.212119 0.263662,0.212119 0.263662,0.539219 0,0.200225 -0.124893,0.394502 -0.124892,0.192295 -0.366748,0.301328 v 0.01189 q 0.27754,0.118945 0.424241,0.293398 0.1467,0.174453 0.1467,0.444062 z m -0.469837,-1.44122 q 0,-0.212119 -0.164541,-0.337012 -0.162559,-0.126875 -0.416309,-0.126875 -0.249785,0 -0.410361,0.118945 -0.158594,0.118946 -0.158594,0.321153 0,0.142734 0.0793,0.247802 0.08128,0.103086 0.243838,0.184366 0.07335,0.03568 0.210137,0.09317 0.138769,0.05749 0.269609,0.09516 0.19626,-0.13084 0.271592,-0.271592 0.07533,-0.140752 0.07533,-0.325117 z m 0.06146,1.478886 q 0,-0.182382 -0.08128,-0.291416 -0.0793,-0.111015 -0.313223,-0.222031 -0.09317,-0.04361 -0.204189,-0.08128 -0.111016,-0.03767 -0.295381,-0.105068 -0.178418,0.09714 -0.287451,0.263662 -0.107051,0.166523 -0.107051,0.37666 0,0.267627 0.184365,0.44208 0.184365,0.174453 0.467852,0.174453 0.289433,0 0.461904,-0.148682 0.174453,-0.148681 0.174453,-0.408379 z"
           style="font-style:normal;font-variant:normal;font-weight:normal;font-stretch:normal;font-size:4.06px;font-family:FreeSans;-inkscape-font-specification:FreeSans;fill:#00ccff;stroke-width:0.276817"
           id="path1264" />
        <path
           d="m 102.75051,78.763499 q 0,0.382608 -0.29935,0.636358 -0.29736,0.25375 -0.74935,0.25375 -0.47975,0 -0.76522,-0.247803 -0.28348,-0.247803 -0.28348,-0.634375 0,-0.24582 0.14273,-0.444062 0.14274,-0.200225 0.40243,-0.317188 v -0.01189 q -0.23789,-0.126875 -0.35287,-0.277539 -0.113,-0.150664 -0.113,-0.376661 0,-0.333046 0.27358,-0.555078 0.27357,-0.222031 0.69583,-0.222031 0.44208,0 0.70574,0.212119 0.26366,0.212119 0.26366,0.539219 0,0.200225 -0.12489,0.394502 -0.12489,0.192295 -0.36675,0.301328 v 0.01189 q 0.27754,0.118945 0.42424,0.293398 0.1467,0.174453 0.1467,0.444062 z m -0.46983,-1.44122 q 0,-0.212119 -0.16454,-0.337012 -0.16256,-0.126875 -0.41631,-0.126875 -0.24979,0 -0.41036,0.118945 -0.1586,0.118946 -0.1586,0.321153 0,0.142734 0.0793,0.247802 0.0813,0.103086 0.24384,0.184366 0.0734,0.03568 0.21013,0.09317 0.13877,0.05749 0.26961,0.09516 0.19626,-0.13084 0.27159,-0.271592 0.0753,-0.140752 0.0753,-0.325117 z m 0.0614,1.478886 q 0,-0.182382 -0.0813,-0.291416 -0.0793,-0.111015 -0.31322,-0.222031 -0.0932,-0.04361 -0.20419,-0.08128 -0.11102,-0.03767 -0.29538,-0.105068 -0.17842,0.09714 -0.28745,0.263662 -0.10705,0.166523 -0.10705,0.37666 0,0.267627 0.18436,0.44208 0.18437,0.174453 0.46785,0.174453 0.28944,0 0.46191,-0.148682 0.17445,-0.148681 0.17445,-0.408379 z"
           style="font-style:normal;font-variant:normal;font-weight:normal;font-stretch:normal;font-size:4.06px;font-family:FreeSans;-inkscape-font-specification:FreeSans;fill:#00ccff;stroke-width:0.276817"
           id="path1266" />
      </g>
      <path
         id="rect1108"
         style="fill:#00ccff;fill-opacity:1;stroke:none;stroke-width:0.264583;stroke-linejoin:round;stroke-miterlimit:4;stroke-dasharray:none;paint-order:stroke fill markers"
         d="m 93.544601,74.948036 h 4.328829 v 0.216872 h -4.328829 z" />
      <path
         id="rect1110"
         style="fill:#00ccff;fill-opacity:1;stroke:none;stroke-width:0.264583;stroke-linejoin:round;stroke-miterlimit:4;stroke-dasharray:none;paint-order:stroke fill markers"
         d="m 93.538574,79.436302 h 4.340891 v 0.180939 h -4.340891 z" />
    </g>
  </g>
</svg>
